# xmcd
#
# Track frame offsets:
#	150
#	12899
#	26174
#	42420
#	57570
#	71484
#	86644
#	100935
#	119909
#	133109
#	156096
#	170498
#	184255
#	197200
#	215631
#	228007
#	240081
#
# Disc length: 3356 seconds
#
# Revision: 1
# Processed by: cddbd v1.5.2PL0 Copyright (c) Steve Scherf et al.
# Submitted via: audiograbber 1.83.01
#
DISCID=f20d1a11
DTITLE=Michel Bonnet - Mem 'Ory
DYEAR=2014
DGENRE=Jazz
TTITLE0=Muskrat Ramble (E Ory)
TTITLE1=The Entertainer (SJoplin)
TTITLE2=South Rampart Street Parade (B Haggart - R Beauduc)
TTITLE3=Aunt Hagar's Blues (w.c. Handy)
TTITLE4=Maple Leaf Rag (S Joplin)
TTITLE5=Creole Love Call (D. Ellington - B.Miley_ R Jackson)
TTITLE6=Ory's Creole Trombonne (E. Ory)
TTITLE7=Do You Know What It MeansTo New Orleans (L. Alter - E.Delange)
TTITLE8=Down Home Rag (W. Sweatman)
TTITLE9=Blueberry Hill (V. Rose - A. Lewis - L. Stock)
TTITLE10=1919 Rag (Traditionnel)
TTITLE11=Savoy Blues (E. Ory)
TTITLE12=South (B. Molen - T. Hayes)
TTITLE13=Weary Blues (A. Matthews)
TTITLE14=Maryland My Maryland (Tradionnel)
TTITLE15=Ballin' The Jack (C. Smith - J. Burris)
TTITLE16=Yaaka Hula Hickey Dula (E.Ray Goetz - J. Young - P. Wending)
EXTD=
EXTT0=
EXTT1=
EXTT2=
EXTT3=
EXTT4=
EXTT5=
EXTT6=
EXTT7=
EXTT8=
EXTT9=
EXTT10=
EXTT11=
EXTT12=
EXTT13=
EXTT14=
EXTT15=
EXTT16=
PLAYORDER=
